<svg xmlns="http://www.w3.org/2000/svg" xmlns:xlink="http://www.w3.org/1999/xlink" version="1.1" width="256" height="256" viewBox="0 0 256 256" xml:space="preserve">

<defs>
</defs>
<g style="stroke: none; stroke-width: 0; stroke-dasharray: none; stroke-linecap: butt; stroke-linejoin: miter; stroke-miterlimit: 10; fill: none; fill-rule: nonzero; opacity: 1;" transform="translate(1.4065934065934016 1.4065934065934016) scale(2.81 2.81)" >
	<path d="M 80.405 10.557 H 67.091 V 6.5 c 0 -1.657 -1.343 -3 -3 -3 s -3 1.343 -3 3 v 4.057 H 28.909 V 6.5 c 0 -1.657 -1.343 -3 -3 -3 s -3 1.343 -3 3 v 4.057 H 9.595 C 4.304 10.557 0 14.861 0 20.152 v 54.752 c 0 5.291 4.304 9.595 9.595 9.595 h 70.81 c 5.291 0 9.595 -4.304 9.595 -9.595 V 20.152 C 90 14.861 85.696 10.557 80.405 10.557 z M 9.595 16.557 h 70.81 c 1.982 0 3.595 1.613 3.595 3.595 v 4.733 H 6 v -4.733 C 6 18.17 7.613 16.557 9.595 16.557 z M 80.405 78.499 H 9.595 C 7.613 78.499 6 76.887 6 74.904 V 30.886 h 78 v 44.019 C 84 76.887 82.388 78.499 80.405 78.499 z" style="stroke: none; stroke-width: 1; stroke-dasharray: none; stroke-linecap: butt; stroke-linejoin: miter; stroke-miterlimit: 10; fill: rgb(230,0,0); fill-rule: nonzero; opacity: 1;" transform=" matrix(1 0 0 1 0 0) " stroke-linecap="round" />
	<path d="M 58.508 40.299 L 38.624 62.673 l -7.176 -7.723 c -1.128 -1.215 -3.026 -1.283 -4.24 -0.155 s -1.284 3.025 -0.156 4.239 l 9.424 10.141 c 0.568 0.611 1.364 0.958 2.198 0.958 c 0.011 0 0.022 0 0.033 0 c 0.846 -0.01 1.647 -0.375 2.209 -1.007 l 22.076 -24.842 c 1.101 -1.238 0.989 -3.134 -0.249 -4.235 C 61.503 38.948 59.607 39.059 58.508 40.299 z" style="stroke: none; stroke-width: 1; stroke-dasharray: none; stroke-linecap: butt; stroke-linejoin: miter; stroke-miterlimit: 10; fill: rgb(230,0,0); fill-rule: nonzero; opacity: 1;" transform=" matrix(1 0 0 1 0 0) " stroke-linecap="round" />
</g>
</svg>