<svg xmlns="http://www.w3.org/2000/svg" xmlns:xlink="http://www.w3.org/1999/xlink" version="1.1" width="256" height="256" viewBox="0 0 256 256" xml:space="preserve">

<defs>
</defs>
<g style="stroke: none; stroke-width: 0; stroke-dasharray: none; stroke-linecap: butt; stroke-linejoin: miter; stroke-miterlimit: 10; fill: none; fill-rule: nonzero; opacity: 1;" transform="translate(1.4065934065934016 1.4065934065934016) scale(2.81 2.81)" >
	<path d="M 54.016 90 H 36.423 c -2.08 0 -3.75 -1.333 -4.158 -3.317 l -1.105 -7.146 c -0.302 -1.953 -1.5 -3.648 -3.288 -4.651 c -0.195 -0.109 -0.392 -0.222 -0.587 -0.337 c -1.763 -1.033 -3.827 -1.213 -5.66 -0.499 l -6.842 2.676 c -1.841 0.838 -4.218 0.048 -5.173 -1.722 L 0.838 60.209 c -1.167 -1.904 -0.771 -4.147 0.979 -5.428 L 7.519 50.4 c 1.601 -1.23 2.511 -3.153 2.496 -5.278 l 0 -0.123 c 0.006 -2.216 -0.925 -4.159 -2.556 -5.382 l -5.881 -4.413 c -0.884 -0.663 -1.063 -1.917 -0.399 -2.8 c 0.663 -0.885 1.917 -1.063 2.8 -0.399 l 5.881 4.413 c 2.651 1.988 4.165 5.102 4.155 8.542 c 0 0.004 0 0.13 0 0.134 c 0.023 3.387 -1.456 6.477 -4.06 8.477 L 4.217 57.98 c -0.013 0.009 -0.021 0.013 -0.028 0.014 c 0.013 0.035 0.036 0.087 0.075 0.15 l 8.811 14.861 c 0.003 0.004 0.006 0.009 0.008 0.014 c 0.032 0.016 0.077 0.029 0.111 0.033 c 0.023 -0.011 0.047 -0.021 0.071 -0.029 l 6.902 -2.699 c 2.983 -1.166 6.315 -0.882 9.143 0.774 c 0.172 0.102 0.344 0.2 0.517 0.297 c 2.869 1.609 4.794 4.354 5.286 7.53 l 1.088 7.05 C 36.197 85.943 36.212 86 36.423 86 h 17.593 c 0.083 0 0.201 -0.107 0.248 -0.188 l 1.071 -6.932 c 0.484 -3.135 2.373 -5.858 5.183 -7.473 l 0.504 -0.296 c 2.833 -1.691 6.186 -1.985 9.199 -0.808 l 6.954 2.72 c 1.028 0.402 1.536 1.563 1.134 2.591 s -1.561 1.537 -2.591 1.134 l -6.954 -2.72 c -1.852 -0.723 -3.928 -0.536 -5.689 0.516 l -0.558 0.328 c -1.757 1.009 -2.931 2.691 -3.229 4.618 l -1.097 7.096 c -0.01 0.063 -0.022 0.127 -0.039 0.189 C 57.743 88.378 56.19 90 54.016 90 z M 87.439 58.395 c -0.41 0 -0.824 -0.126 -1.181 -0.387 l -6.022 -4.416 c -2.662 -1.954 -4.251 -5.096 -4.25 -8.406 V 45 c -0.024 -3.483 1.455 -6.573 4.059 -8.572 l 5.737 -4.408 c 0.013 -0.009 0.022 -0.013 0.028 -0.014 c -0.013 -0.036 -0.035 -0.086 -0.074 -0.15 l -8.813 -14.861 c -0.003 -0.005 -0.006 -0.01 -0.009 -0.015 c -0.032 -0.015 -0.076 -0.028 -0.109 -0.032 c -0.023 0.01 -0.048 0.02 -0.071 0.029 l -6.902 2.699 c -2.979 1.165 -6.313 0.884 -9.143 -0.776 l -0.435 -0.25 c -2.932 -1.656 -4.865 -4.471 -5.304 -7.722 l -0.912 -6.751 C 53.991 4.102 53.876 4 53.796 4 H 36.204 c -0.083 0 -0.201 0.107 -0.248 0.188 l -1.069 6.93 c -0.484 3.135 -2.373 5.859 -5.183 7.474 c -0.171 0.098 -0.34 0.197 -0.508 0.298 c -2.832 1.691 -6.184 1.986 -9.197 0.807 l -6.955 -2.72 c -1.029 -0.402 -1.537 -1.563 -1.134 -2.591 c 0.402 -1.029 1.561 -1.537 2.591 -1.134 l 6.955 2.72 c 1.853 0.725 3.927 0.537 5.689 -0.516 c 0.188 -0.112 0.377 -0.223 0.567 -0.332 c 1.749 -1.005 2.923 -2.688 3.221 -4.616 l 1.095 -7.093 c 0.01 -0.063 0.023 -0.127 0.039 -0.189 C 32.476 1.623 34.028 0 36.204 0 h 17.592 c 2.177 0 3.729 1.623 4.138 3.226 c 0.019 0.074 0.033 0.15 0.044 0.226 l 0.938 6.942 c 0.27 2 1.475 3.74 3.308 4.775 l 0.489 0.281 c 1.765 1.036 3.83 1.219 5.662 0.5 l 6.843 -2.676 c 1.842 -0.836 4.221 -0.047 5.173 1.723 l 8.771 14.792 c 1.168 1.905 0.771 4.147 -0.98 5.429 l -5.699 4.38 c -1.602 1.23 -2.512 3.154 -2.497 5.278 c 0 0.004 0.001 0.118 0.001 0.123 v 0.187 c -0.001 2.041 0.978 3.978 2.615 5.18 l 6.022 4.415 c 0.891 0.653 1.083 1.905 0.431 2.796 C 88.662 58.111 88.056 58.395 87.439 58.395 z" style="stroke: none; stroke-width: 1; stroke-dasharray: none; stroke-linecap: butt; stroke-linejoin: miter; stroke-miterlimit: 10; fill: rgb(226,73,73); fill-rule: nonzero; opacity: 1;" transform=" matrix(1 0 0 1 0 0) " stroke-linecap="round" />
	<path d="M 45 66.109 c -12.082 0 -21.545 -9.272 -21.545 -21.109 c 0 -1.104 0.896 -2 2 -2 s 2 0.896 2 2 c 0 9.594 7.707 17.109 17.545 17.109 c 9.839 0 17.546 -7.516 17.546 -17.109 c 0 -9.594 -7.707 -17.109 -17.546 -17.109 c -3.603 0 -7.047 1.027 -9.963 2.97 c -0.921 0.613 -2.161 0.364 -2.773 -0.555 c -0.613 -0.919 -0.364 -2.161 0.555 -2.773 c 3.575 -2.383 7.787 -3.642 12.182 -3.642 c 12.082 0 21.546 9.272 21.546 21.109 S 57.082 66.109 45 66.109 z" style="stroke: none; stroke-width: 1; stroke-dasharray: none; stroke-linecap: butt; stroke-linejoin: miter; stroke-miterlimit: 10; fill: rgb(226,73,73); fill-rule: nonzero; opacity: 1;" transform=" matrix(1 0 0 1 0 0) " stroke-linecap="round" />
</g>
</svg>